<svg xmlns="http://www.w3.org/2000/svg" viewBox="0 0 54.1 113" enable-background="new 0 0 54.1 113"><style type="text/css">.st0{fill:#FFFFFF;}</style><path class="st0" d="M11.9 56.4h-11.9v-19.6h11.9v-2.8c.1-5.7-.3-11.4.5-17 1.3-9.3 6.6-14.9 15.9-16 8-1 16.2-.8 24.4-1 .4 0 1.3 1 1.3 1.5l.1 17.3c0 1.4-.8 1.5-1.9 1.5h-11.9c-2.6 0-4 1.2-4.2 3.7-.2 3.3-.1 6.6-.1 9.9v2.7h18.1c-.2 3-.4 5.6-.6 8.3-.3 3.1-.6 6.2-.9 9.4-.1 1.4-.7 1.9-2.1 1.9-3.9-.1-7.8 0-11.7 0h-2.8v2.8c0 17 0 34 .1 51 0 2.3-.6 3-2.9 2.9-6.1-.2-12.3-.1-18.4 0-2.2 0-2.9-.5-2.9-2.8.1-16.9.1-33.9.1-50.8-.1-.8-.1-1.7-.1-2.9z"/></svg>