<?xml version="1.0" encoding="utf-8"?>
<!-- Generator: Adobe Illustrator 19.1.0, SVG Export Plug-In . SVG Version: 6.00 Build 0)  -->
<svg version="1.1" id="Capa_1" xmlns="http://www.w3.org/2000/svg" xmlns:xlink="http://www.w3.org/1999/xlink" x="0px" y="0px"
	 viewBox="0 0 42.9 50" style="enable-background:new 0 0 42.9 50;" xml:space="preserve">
<style type="text/css">
	.st0{fill:#1A2639;}
</style>
<path class="st0" d="M36.8,23h-0.4v-7.6c0-4.8-1.4-8.6-4.3-11.4c-4-3.8-9.2-4-10.4-4v0c-0.7,0-6.4-0.1-10.7,4
	C8,6.8,6.5,10.6,6.5,15.4V23H6.1C2.8,23,0,25.8,0,29.2v14.7C0,47.2,2.8,50,6.1,50h30.6c3.4,0,6.1-2.8,6.1-6.1V29.2
	C42.9,25.8,40.1,23,36.8,23z M13.9,15.4c0-2.7,0.7-4.7,2-6c1.2-1.2,2.8-1.7,4-1.9c0.2,0,0.4-0.1,0.7-0.1c0,0,2,0,3.2,0.3
	c1,0.3,2.2,0.7,3.1,1.6c1.4,1.3,2.1,3.4,2.1,6.1v7.1H13.9V15.4z"/>
</svg>
