<?xml version="1.0" encoding="utf-8"?>
<!-- Generator: Adobe Illustrator 19.1.0, SVG Export Plug-In . SVG Version: 6.00 Build 0)  -->
<svg version="1.1" id="Capa_1" xmlns="http://www.w3.org/2000/svg" xmlns:xlink="http://www.w3.org/1999/xlink" x="0px" y="0px"
	 viewBox="0 0.2 48.4 49.8" style="enable-background:new 0 0.2 48.4 49.8;" xml:space="preserve">
<style type="text/css">
	.st0{fill:#1A2639;}
</style>
<path class="st0" d="M47.5,44.3l-8.8-8.9c2.9-3.7,4.7-8.4,4.7-13.4c0-12.1-9.7-21.8-21.7-21.8S0,9.9,0,21.9s9.7,21.7,21.7,21.7
	c4.4,0,8.5-1.3,12-3.6l9,9.1c1.2,1.2,3.2,1.2,4.4,0l0.4-0.4C48.7,47.4,48.8,45.5,47.5,44.3z M6.9,21.9c0-8.2,6.7-14.8,14.8-14.8
	s14.8,6.7,14.8,14.8s-6.7,14.8-14.8,14.8S6.9,30.1,6.9,21.9z"/>
</svg>
