<?xml version="1.0" encoding="utf-8"?>
<!-- Generator: Adobe Illustrator 18.0.0, SVG Export Plug-In . SVG Version: 6.00 Build 0)  -->
<!DOCTYPE svg PUBLIC "-//W3C//DTD SVG 1.1//EN" "http://www.w3.org/Graphics/SVG/1.1/DTD/svg11.dtd">
<svg version="1.1" id="Capa_1" xmlns="http://www.w3.org/2000/svg" xmlns:xlink="http://www.w3.org/1999/xlink" x="0px" y="0px"
	 viewBox="0 238 612 316.2" enable-background="new 0 238 612 316.2" xml:space="preserve">
<g>
	<g>
		<rect y="376.8" fill="#919191" width="28.5" height="137.4"/>
		<path fill="#919191" d="M134.9,418.3c-6.6-5.5-15.2-8.3-25.7-8.3c-8.3,0-15.2,1.9-20.7,6.1c-3,2.2-6.4,6.1-9.7,11.3v-14.9H53.1
			v101.4h26.5v-55c0-6.4,0.8-11.3,2.5-15.5c3.3-7.7,9.4-11.3,18.5-11.3c7.2,0,12.2,2.5,14.9,7.7c1.4,2.8,2.2,6.9,2.2,12.2v61.6h27.1
			v-68C145.1,432.9,141.8,423.8,134.9,418.3z"/>
		<path fill="#919191" d="M224.5,452.8c-15.8-3.6-25.2-5.8-27.6-7.5c-2.5-1.4-3.9-3.6-3.9-6.6c0-2.5,1.1-4.4,3.6-6.4
			s6.6-2.8,12.4-2.8c6.9,0,11.9,1.9,14.9,5.5c1.7,1.9,2.5,4.7,2.8,8h26.5c-1.1-12.4-5.8-21.3-13.8-26.3c-7.7-4.7-18-7.5-30.7-7.5
			c-13.3,0-23.8,3.3-31.2,10.2c-7.5,6.6-11.1,14.9-11.1,24c0,8,2.5,14.1,7.2,18.2c4.7,4.1,12.7,7.7,24.3,10.8
			c16,3.9,25.2,6.4,27.6,8c2.5,1.7,3.6,3.9,3.6,6.9s-1.7,5.5-4.7,6.9c-3,1.7-7.2,2.2-12.4,2.2c-8.8,0-14.9-1.7-18.2-5.3
			c-1.9-1.9-3-5.3-3.6-10h-26.8c0,10.5,3.9,19.1,11.3,25.7c7.7,6.6,19.3,10.2,35.4,10.2c15.8,0,27.4-3.3,34.8-9.7
			c7.5-6.4,11.3-14.7,11.3-24.6c0-7.7-2.5-14.1-7.7-19.1C243,459.2,235.2,455.3,224.5,452.8z"/>
		<path fill="#919191" d="M330.9,410.2c-8.3,0-15.2,2.2-21.3,6.9c-3.3,2.5-6.4,6.1-9.1,10.5v-14.9H275v141.5h26.3v-53.3
			c2.8,4.1,5.8,7.5,8.6,9.7c5.3,4.1,12.2,6.1,20.2,6.1c12.7,0,23.2-4.7,31.2-14.1c8-9.4,12.2-22.9,12.2-40.9
			c0-16.9-4.1-29.9-12.4-38.4C352.7,414.7,342.8,410.2,330.9,410.2z M340.3,486c-3.9,5.8-9.7,8.6-17.1,8.6c-5.3,0-9.7-1.4-13.3-4.1
			c-6.4-4.7-9.4-13-9.4-24.9c0-7.5,0.8-13.5,2.8-18.5c3.6-9.1,10.2-13.8,19.9-13.8c8,0,13.8,3,17.4,9.1c3.6,6.1,5.5,13,5.5,20.7
			C346.1,472.7,344.1,480.2,340.3,486z"/>
		<rect x="392.5" y="412.4" fill="#919191" width="26.8" height="101.4"/>
		<path fill="#919191" d="M500.3,410c-8,0-14.4,2.2-19.3,6.4c-3,2.5-6.6,7.2-10.8,13.8v-17.7H445v101.4h26.8v-48.4
			c0-8,1.1-14.1,3-18c3.6-6.9,10.8-10.5,21.6-10.5c0.8,0,1.9,0,3,0c1.4,0,2.8,0.3,4.4,0.3v-27.1c-1.1,0-1.9,0-2.2-0.3
			C501.4,409.7,500.9,410,500.3,410z"/>
		<path fill="#919191" d="M611.2,450.6c-1.1-8-3.9-14.9-8-21c-4.7-6.9-10.5-11.9-17.4-14.9c-7.2-3-14.9-4.7-23.8-4.7
			c-14.9,0-27.1,4.7-36.2,14.1c-9.4,9.4-14.1,22.9-14.1,40.4c0,18.8,5.3,32.3,15.5,40.6c10.2,8.3,22.1,12.4,35.7,12.4
			c16.3,0,29-5,38.1-14.9c5.8-6.1,9.1-12.4,10-18.2h-27.1c-1.7,3-3.3,5.3-5.5,6.9c-3.9,3-8.6,4.7-14.7,4.7c-5.8,0-10.5-1.4-14.7-3.9
			c-6.6-4.1-10.2-11.3-10.5-21.3h73.8C612.3,461.9,612,455,611.2,450.6z M538.7,453.1c0.8-6.6,3.3-11.9,7.2-15.8
			c3.9-3.9,9.1-5.8,15.8-5.8c6.4,0,11.6,1.9,15.8,5.5s6.6,9.1,7.2,16L538.7,453.1L538.7,453.1z"/>
	</g>
	<g>
		<path fill="#919191" d="M129.5,378.2c15.8,0,27.4-3.3,34.8-9.7c7.5-6.4,11.3-14.7,11.3-24.6c0-7.7-2.5-14.1-7.7-19.1
			s-13.3-8.8-23.8-11.3c-15.8-3.6-25.2-5.8-27.6-7.5c-2.5-1.4-3.9-3.6-3.9-6.6c0-2.5,1.1-4.4,3.6-6.4c2.5-1.9,6.6-2.8,12.4-2.8
			c6.9,0,11.9,1.9,14.9,5.5c1.7,1.9,2.5,4.7,2.8,8h26.5c-1.1-12.4-5.8-21.3-13.8-26.3c-8-5-18.2-7.5-31-7.5
			c-13.3,0-23.8,3.3-31.2,10.2c-7.5,6.6-11.1,14.9-11.1,24c0,8,2.5,14.1,7.2,18.2c4.7,4.1,12.7,7.7,24.3,10.8
			c16,3.9,25.2,6.4,27.6,8c2.5,1.7,3.6,3.9,3.6,6.9s-1.7,5.5-4.7,6.9c-3,1.7-7.2,2.2-12.4,2.2c-8.8,0-14.9-1.7-18.2-5.3
			c-1.9-1.9-3-5.3-3.6-10H82.8c0,10.5,3.9,19.1,11.3,25.7C101.9,374.9,113.5,378.2,129.5,378.2z"/>
		<polygon fill="#919191" points="524.8,374.9 486.9,311.6 523.4,273.7 490.2,273.7 456.8,312.1 456.8,238 430.8,238 430.8,238 
			430.8,400 456.8,400 456.8,342.8 467.8,331.5 492.4,374.9 		"/>
		<path fill="#919191" d="M365.3,261.5c-24.9,0-46.4,16.3-54.7,39c-5-1.7-9.4-1.9-13-1.7c-2.5,0.3-4.7,0.6-6.6,1.4
			c-8.3-22.7-29.6-38.7-54.5-38.7c-32.1,0-58.3,27.1-58.3,60c0,33.2,26.3,60,58.3,60c31.2,0,56.9-25.4,58.3-57.2
			c1.4-0.8,3-1.4,4.7-1.7c2.2-0.3,4.7,0.6,7.5,2.2c1.7,31.8,27.1,56.9,58.3,56.9c32.1,0,58.3-27.1,58.3-60
			C423.6,288.6,397.4,261.5,365.3,261.5z M236.5,358c-19.1,0-34.6-16.3-34.6-36.2s15.5-36.2,34.6-36.2c15.5,0,28.5,10.8,32.9,25.4
			h-38.1v23.8h37.3C263.6,348.3,251.1,358,236.5,358z M365.3,358c-19.1,0-34.6-16.3-34.6-36.2s15.5-36.2,34.6-36.2
			c15.5,0,28.7,10.8,32.9,25.7H360v23.5h37.3C392.4,348.3,379.9,358,365.3,358z"/>
	</g>
</g>
</svg>
