<?xml version="1.0" encoding="utf-8"?>
<!-- Generator: Adobe Illustrator 19.1.0, SVG Export Plug-In . SVG Version: 6.00 Build 0)  -->
<svg version="1.1" id="Capa_1" xmlns="http://www.w3.org/2000/svg" xmlns:xlink="http://www.w3.org/1999/xlink" x="0px" y="0px"
	 viewBox="-173 122.8 612 316.2" style="enable-background:new -173 122.8 612 316.2;" xml:space="preserve">
<style type="text/css">
	.st0{fill:#919191;}
</style>
<g>
	<g>
		<path class="st0" d="M-50.1,227.2c0.6,4.7,1.8,8.1,3.6,10.1c3.3,3.5,9.4,5.3,18.3,5.3c5.2,0,9.4-0.8,12.5-2.3
			c3.1-1.6,4.6-3.9,4.6-7c0-3-1.2-5.2-3.7-6.8c-2.5-1.6-11.7-4.2-27.8-8c-11.5-2.9-19.7-6.4-24.4-10.7c-4.7-4.2-7.1-10.3-7.1-18.2
			c0-9.4,3.7-17.4,11.1-24.2c7.4-6.7,17.7-10.1,31.1-10.1c12.7,0,23,2.5,31,7.6c8,5.1,12.6,13.8,13.8,26.2h-26.5
			c-0.4-3.4-1.3-6.1-2.9-8.1c-2.9-3.6-7.9-5.4-14.9-5.4c-5.8,0-9.9,0.9-12.4,2.7c-2.5,1.8-3.7,3.9-3.7,6.3c0,3,1.3,5.2,3.9,6.6
			c2.6,1.4,11.8,3.9,27.7,7.4C-5.2,201,2.7,204.7,8,209.8c5.2,5.1,7.8,11.5,7.8,19.1c0,10.1-3.7,18.3-11.2,24.6s-19.1,9.5-34.7,9.5
			c-16,0-27.8-3.4-35.4-10.1S-77,237.6-77,227.2H-50.1z"/>
	</g>
	<g>
		<path class="st0" d="M101.5,160.1c7.1,3.2,12.9,8.2,17.5,15c4.2,6,6.9,13,8.1,21c0.7,4.7,1,11.4,0.9,20.1H54.1
			c0.4,10.2,3.9,17.3,10.6,21.4c4.1,2.5,8.9,3.8,14.6,3.8c6,0,11-1.6,14.7-4.7c2.1-1.7,3.9-4,5.5-7h27.1c-0.7,6-4,12.1-9.8,18.3
			C107.7,258.1,95,263,78.6,263c-13.5,0-25.4-4.2-35.7-12.5c-10.3-8.3-15.5-21.9-15.5-40.6c0-17.6,4.7-31.1,14-40.4
			c9.3-9.4,21.4-14.1,36.3-14.1C86.5,155.4,94.4,157,101.5,160.1z M61.8,183.1c-3.7,3.9-6.1,9.1-7.1,15.7h45.7
			c-0.5-7-2.8-12.4-7.1-16c-4.2-3.6-9.5-5.5-15.7-5.5C70.9,177.3,65.6,179.2,61.8,183.1z"/>
	</g>
	<g>
		<path class="st0" d="M183.8,155.4c14.9,0,27,4.7,36.3,14.1c9.3,9.4,14,22.9,14,40.4c0,18.8-5.2,32.3-15.5,40.6
			c-10.3,8.3-22.2,12.5-35.7,12.5c-16.4,0-29.1-4.9-38.2-14.8c-5.8-6.2-9.1-12.3-9.8-18.3h27.1c1.6,3,3.4,5.3,5.5,7
			c3.8,3.1,8.7,4.7,14.7,4.7c5.7,0,10.6-1.3,14.6-3.8c6.7-4.1,10.2-11.2,10.6-21.4h-73.9c-0.1-8.8,0.2-15.5,0.9-20.1
			c1.2-8,3.9-15,8.1-21c4.6-6.8,10.5-11.8,17.5-15C167,157,175,155.4,183.8,155.4z M183.8,177.3c-6.3,0-11.5,1.8-15.7,5.5
			c-4.2,3.6-6.6,9-7.1,16h45.7c-1-6.6-3.3-11.8-7.1-15.7C195.9,179.2,190.6,177.3,183.8,177.3z"/>
	</g>
	<g>
		<polygon class="st0" points="303.4,196.4 339.7,158.6 306.7,158.6 273.3,196.8 273.3,122.8 247.2,122.8 247.2,122.8 247.2,284.7 
			273.3,284.7 273.3,227.6 284.3,216.2 308.9,259.6 341.2,259.6 		"/>
	</g>
</g>
<g>
	<g>
		<path class="st0" d="M-144.5,398.7H-173V261.4h28.5V398.7z"/>
	</g>
	<g>
		<path class="st0" d="M-38,303c6.6,5.5,10,14.6,10,27.3v68.3h-27.2v-61.7c0-5.3-0.7-9.4-2.1-12.3c-2.6-5.2-7.5-7.8-14.8-7.8
			c-8.9,0-15.1,3.8-18.4,11.5c-1.7,4-2.6,9.2-2.6,15.5v54.9h-26.5V297.4H-94v14.8c3.4-5.2,6.6-9,9.6-11.3c5.4-4.1,12.3-6.1,20.7-6.1
			C-53.2,294.7-44.6,297.5-38,303z"/>
	</g>
	<g>
		<path class="st0" d="M17.2,366.3c0.6,4.7,1.8,8.1,3.6,10.1c3.3,3.5,9.4,5.3,18.3,5.3c5.2,0,9.4-0.8,12.5-2.3
			c3.1-1.6,4.6-3.9,4.6-7c0-3-1.2-5.2-3.7-6.8c-2.5-1.6-11.7-4.2-27.8-8c-11.5-2.9-19.7-6.4-24.4-10.7c-4.7-4.2-7.1-10.3-7.1-18.2
			c0-9.4,3.7-17.4,11.1-24.2s17.7-10.1,31.1-10.1c12.7,0,23,2.5,31,7.6c8,5.1,12.6,13.8,13.8,26.2H53.8c-0.4-3.4-1.3-6.1-2.9-8.1
			c-2.9-3.6-7.9-5.4-14.9-5.4c-5.8,0-9.9,0.9-12.4,2.7c-2.5,1.8-3.7,3.9-3.7,6.3c0,3,1.3,5.2,3.9,6.6c2.6,1.4,11.8,3.9,27.7,7.4
			c10.6,2.5,18.5,6.2,23.8,11.3c5.2,5.1,7.8,11.5,7.8,19.1c0,10.1-3.7,18.3-11.2,24.6c-7.5,6.4-19.1,9.5-34.7,9.5
			c-16,0-27.8-3.4-35.4-10.1s-11.4-15.3-11.4-25.7H17.2z"/>
	</g>
	<g>
		<path class="st0" d="M188,308.1c8.3,8.8,12.4,21.6,12.4,38.5c0,17.9-4,31.5-12.1,40.9c-8.1,9.4-18.5,14.1-31.3,14.1
			c-8.1,0-14.9-2-20.2-6.1c-2.9-2.2-5.8-5.5-8.6-9.8v52.9h-26.3V297.2h25.4v15c2.9-4.4,5.9-7.9,9.2-10.4c5.9-4.5,13-6.8,21.2-6.8
			C169.6,294.9,179.8,299.3,188,308.1z M167.7,327.1c-3.6-6-9.5-9-17.5-9c-9.7,0-16.4,4.6-20,13.7c-1.9,4.8-2.8,11-2.8,18.4
			c0,11.8,3.2,20.1,9.5,24.9c3.8,2.8,8.2,4.2,13.4,4.2c7.5,0,13.2-2.9,17.1-8.6c3.9-5.7,5.9-13.3,5.9-22.8
			C173.1,340.1,171.3,333.2,167.7,327.1z"/>
	</g>
	<g>
		<rect x="219.5" y="297.2" class="st0" width="26.9" height="101.5"/>
	</g>
	<g>
		<path class="st0" d="M328.5,294.8c0.3,0,1.1,0.1,2.3,0.1v27.2c-1.7-0.2-3.2-0.3-4.5-0.4c-1.3-0.1-2.4-0.1-3.2-0.1
			c-10.7,0-17.8,3.5-21.5,10.4c-2,3.9-3.1,9.9-3.1,18.1v48.5h-26.7V297.2h25.3v17.7c4.1-6.8,7.7-11.4,10.7-13.9
			c5-4.2,11.4-6.2,19.4-6.2C327.8,294.7,328.2,294.8,328.5,294.8z"/>
	</g>
	<g>
		<path class="st0" d="M412.5,299.2c7.1,3.2,12.9,8.2,17.5,15c4.2,6,6.9,13,8.1,21c0.7,4.7,1,11.4,0.9,20.1h-73.9
			c0.4,10.2,3.9,17.3,10.6,21.4c4.1,2.5,8.9,3.8,14.6,3.8c6,0,11-1.6,14.7-4.7c2.1-1.7,3.9-4,5.5-7h27.1c-0.7,6-4,12.1-9.8,18.3
			c-9.1,9.9-21.8,14.8-38.2,14.8c-13.5,0-25.4-4.2-35.7-12.5c-10.3-8.3-15.5-21.9-15.5-40.6c0-17.6,4.7-31.1,14-40.4
			c9.3-9.4,21.4-14.1,36.3-14.1C397.4,294.5,405.4,296.1,412.5,299.2z M372.8,322.1c-3.7,3.9-6.1,9.1-7.1,15.7h45.7
			c-0.5-7-2.8-12.4-7.1-16c-4.2-3.6-9.5-5.5-15.7-5.5C381.8,316.3,376.5,318.3,372.8,322.1z"/>
	</g>
</g>
</svg>
