<?xml version="1.0" encoding="utf-8"?>
<!-- Generator: Adobe Illustrator 19.1.0, SVG Export Plug-In . SVG Version: 6.00 Build 0)  -->
<svg version="1.1" id="Capa_1" xmlns="http://www.w3.org/2000/svg" xmlns:xlink="http://www.w3.org/1999/xlink" x="0px" y="0px"
	 viewBox="0 0 50 50" style="enable-background:new 0 0 50 50;" xml:space="preserve">
<style type="text/css">
	.st0{fill:#919191;}
</style>
<path class="st0" d="M48.1,22.5h-4.7c-0.4-2.8-1.5-5.4-3-7.6l3.4-3.4c0.8-0.8,0.8-2,0-2.7l-2.2-2.2c-0.8-0.8-2-0.8-2.7,0L35.5,10
	c-1.9-1.3-4-2.2-6.3-2.8V1.9c0-1.1-0.9-1.9-1.9-1.9h-3.1c-1.1,0-1.9,0.9-1.9,1.9V7c-2.8,0.4-5.4,1.5-7.7,3l-3.4-3.4
	c-0.8-0.8-2-0.8-2.7,0L6.2,8.9c-0.8,0.8-0.8,2,0,2.7L9.6,15c-1.5,2.2-2.5,4.8-3,7.6H1.9c-1.1,0-1.9,0.9-1.9,1.9v3.1
	c0,1.1,0.9,1.9,1.9,1.9h4.9c0.5,2.3,1.5,4.5,2.8,6.4l-3.4,3.4c-0.8,0.8-0.8,2,0,2.7l2.2,2.2c0.8,0.8,2,0.8,2.7,0l3.4-3.4
	c2.2,1.5,4.9,2.6,7.7,3v4.2c0,1.1,0.9,1.9,1.9,1.9h3.1c1.1,0,1.9-0.9,1.9-1.9v-4.5c2.3-0.5,4.4-1.5,6.3-2.8l3.4,3.4
	c0.8,0.8,2,0.8,2.7,0l2.2-2.2c0.8-0.8,0.8-2,0-2.7l-3.4-3.4c1.3-1.9,2.3-4.1,2.8-6.4h4.9c1.1,0,1.9-0.9,1.9-1.9v-3.1
	C50,23.4,49.1,22.5,48.1,22.5z M25,36c-5.8,0-10.6-4.8-10.6-10.6S19.2,14.8,25,14.8c5.8,0,10.6,4.8,10.6,10.6S30.8,36,25,36z"/>
</svg>
