<?xml version="1.0" encoding="utf-8"?>
<!-- Generator: Adobe Illustrator 18.0.0, SVG Export Plug-In . SVG Version: 6.00 Build 0)  -->
<!DOCTYPE svg PUBLIC "-//W3C//DTD SVG 1.1//EN" "http://www.w3.org/Graphics/SVG/1.1/DTD/svg11.dtd">
<svg version="1.1" id="Capa_1" xmlns="http://www.w3.org/2000/svg" xmlns:xlink="http://www.w3.org/1999/xlink" x="0px" y="0px"
	 viewBox="0 0 40 50" enable-background="new 0 0 40 50" xml:space="preserve">
<polygon fill="#293C56" points="30,0 0.2,0 0.2,50 40,50 40,10.3 "/>
<path fill="#1A2639" d="M30,8.6c0,0.9,0.8,1.7,1.7,1.7H40L30,0V8.6z"/>
<path fill="#FFFFFF" d="M26,25.1l-4.7-4.2c-0.7-0.6-1.7-0.6-2.4,0l-4.7,4.2c-0.3,0.3-0.4,0.8-0.1,1.1c0.2,0.2,0.4,0.3,0.6,0.3
	c0.2,0,0.4-0.1,0.5-0.2l4.1-3.6v9.7c0,0.4,0.4,0.8,0.8,0.8s0.8-0.4,0.8-0.8v-9.7l4,3.6c0.3,0.3,0.8,0.3,1.1-0.1
	C26.3,25.9,26.3,25.4,26,25.1z"/>
</svg>
