<?xml version="1.0" encoding="utf-8"?>
<!-- Generator: Adobe Illustrator 18.0.0, SVG Export Plug-In . SVG Version: 6.00 Build 0)  -->
<!DOCTYPE svg PUBLIC "-//W3C//DTD SVG 1.1//EN" "http://www.w3.org/Graphics/SVG/1.1/DTD/svg11.dtd">
<svg version="1.1" id="Capa_1" xmlns="http://www.w3.org/2000/svg" xmlns:xlink="http://www.w3.org/1999/xlink" x="0px" y="0px"
	 viewBox="0 0 19.5 19.6" enable-background="new 0 0 19.5 19.6" xml:space="preserve">
<path fill="#919191" d="M3.9,8.9v10.8h15.6V8.9H3.9z M5.7,18v-0.6c0,0,0.6-9.3,5.2-2.7c0,0,1.1,1.3,2-1.6c0.5-1.7,5-3.2,4.9,2.1
	l0,2.8H5.7z"/>
<path fill="none" d="M5.7,7.5h0.2C5.8,7.5,5.7,7.5,5.7,7.5z"/>
<path fill="#919191" d="M5.7,7.5c0.1,0,0.1,0,0.2,0H10c0-0.3,0-0.6,0-1c-0.2-1.8,3.4-4.9,5.4,0.1l0.4,1h1.8L14.4,0L0,6.1l2.6,6.1
	V7.5H5.7z"/>
</svg>
