<?xml version="1.0" encoding="utf-8"?>
<!-- Generator: Adobe Illustrator 18.0.0, SVG Export Plug-In . SVG Version: 6.00 Build 0)  -->
<!DOCTYPE svg PUBLIC "-//W3C//DTD SVG 1.1//EN" "http://www.w3.org/Graphics/SVG/1.1/DTD/svg11.dtd">
<svg version="1.1" id="Capa_1" xmlns="http://www.w3.org/2000/svg" xmlns:xlink="http://www.w3.org/1999/xlink" x="0px" y="0px"
	 viewBox="0 0 50 50" enable-background="new 0 0 50 50" xml:space="preserve">
<path d="M381-40.9c-0.1-2-1.7-3.6-3.7-3.6h-42.2c-2,0-3.7,1.7-3.7,3.7v0.9l24.8,19.3L381-40.9z"/>
<path d="M356.3-15.4l-24.8-19.4v24.1c0,2,1.7,3.7,3.7,3.7h42.2c2,0,3.7-1.7,3.7-3.7v-25L356.3-15.4z"/>
<path fill="#FFFFFF" d="M381-35.7l3.9-3.2l-2.5-3.1l-1.4,1.1c0,0,0,0.1,0,0.1V-35.7z"/>
<path fill="#FFFFFF" d="M381-35.7v-5.1c0,0,0-0.1,0-0.1l-24.8,20.3l-24.8-19.3v5.1l24.8,19.4L381-35.7z"/>
<path fill="#1A2639" d="M27.2,4l5.9,11.9l13.2,1.9c2,0.3,2.8,2.8,1.4,4.2l-9.5,9.3l2.2,13.1c0.3,2-1.8,3.6-3.6,2.6L25,40.9
	l-11.8,6.2c-1.8,1-3.9-0.6-3.6-2.6l2.2-13.1l-9.5-9.3c-1.5-1.4-0.7-3.9,1.4-4.2l13.2-1.9L22.8,4C23.7,2.2,26.3,2.2,27.2,4z"/>
</svg>
